<?xml version="1.0" standalone="no"?>
<!DOCTYPE svg PUBLIC "-//W3C//DTD SVG 20010904//EN"
 "http://www.w3.org/TR/2001/REC-SVG-20010904/DTD/svg10.dtd">
<svg version="1.0" xmlns="http://www.w3.org/2000/svg"
 width="1202.000000pt" height="406.000000pt" viewBox="0 0 1202.000000 406.000000"
 preserveAspectRatio="xMidYMid meet">

<g transform="translate(0.000000,406.000000) scale(0.100000,-0.100000)"
fill="#000000" stroke="none">
<path d="M862 3619 c-140 -32 -267 -66 -283 -76 -16 -10 -103 -117 -194 -237
-126 -167 -165 -226 -163 -244 6 -51 20 -50 300 12 145 32 277 66 295 75 20
10 87 90 191 227 192 253 188 248 167 280 -9 14 -24 24 -38 23 -12 0 -136 -27
-275 -60z"/>
<path d="M1161 3507 c-13 -25 -13 -26 40 -127 5 -8 20 -41 35 -72 14 -31 32
-59 38 -61 18 -7 76 32 76 51 0 10 -18 37 -40 61 -22 24 -40 48 -40 53 0 5
-15 24 -33 41 -18 18 -39 43 -48 56 l-15 23 -13 -25z"/>
<path d="M986 3276 c-60 -79 -121 -151 -137 -160 -15 -9 -105 -34 -200 -56
-95 -22 -174 -42 -177 -44 -2 -2 36 -64 85 -138 l88 -133 55 1 c49 1 129 27
248 81 9 4 12 -150 12 -754 0 -836 3 -791 -63 -811 -17 -6 -62 -13 -99 -17
-37 -4 -70 -10 -73 -15 -16 -25 44 -28 580 -28 308 -1 648 -5 755 -10 107 -6
196 -9 197 -8 8 7 12 514 4 525 -15 23 -38 -3 -46 -52 -37 -228 -93 -319 -231
-369 -54 -20 -84 -22 -336 -26 l-278 -4 0 457 0 457 168 -4 c172 -4 192 -8
240 -51 27 -25 55 -113 72 -230 13 -85 30 -121 51 -100 7 7 17 732 10 801 -2
22 -28 12 -39 -15 -6 -16 -18 -66 -27 -112 -37 -192 -82 -222 -346 -237 l-129
-7 0 407 0 406 118 2 c178 4 270 -1 352 -18 184 -39 290 -146 315 -319 10 -64
21 -85 45 -85 25 0 25 12 2 285 l-17 200 -461 0 -461 0 4 36 c5 32 -4 51 -77
163 -45 69 -85 126 -89 126 -3 0 -55 -65 -115 -144z"/>
<path d="M3486 3094 c-100 -30 -260 -54 -359 -54 -45 0 -79 -5 -83 -11 -11
-18 17 -29 77 -29 69 0 116 -15 132 -44 9 -15 13 -111 15 -340 l3 -320 -33 28
c-60 49 -136 79 -213 84 -280 18 -514 -157 -581 -434 -22 -92 -23 -277 0 -364
55 -215 219 -389 407 -430 33 -8 94 -11 150 -8 105 6 163 26 221 77 19 17 38
28 42 24 3 -3 6 -22 6 -42 0 -70 11 -72 125 -30 46 17 89 22 185 26 156 5 190
10 190 28 0 8 -3 15 -7 16 -5 0 -30 2 -57 5 -88 6 -80 -79 -86 937 l-5 902
-25 2 c-14 1 -61 -9 -104 -23z m-298 -773 c18 -12 42 -41 55 -64 22 -41 22
-50 25 -441 3 -449 1 -463 -66 -529 -85 -82 -188 -77 -265 13 -77 90 -109 232
-110 480 -1 314 53 486 171 550 51 28 145 23 190 -9z"/>
<path d="M7691 3093 c-94 -30 -215 -50 -359 -61 -104 -8 -146 -21 -128 -39 4
-4 43 -10 88 -14 53 -5 86 -13 97 -23 14 -15 16 -88 19 -729 4 -698 -1 -940
-19 -968 -5 -9 -34 -16 -86 -19 -63 -4 -78 -8 -81 -22 -3 -16 21 -18 360 -18
200 1 369 4 377 9 29 18 -2 31 -73 31 -124 0 -111 -104 -114 892 -1 475 -3
890 -5 923 l-2 61 -74 -23z"/>
<path d="M8337 3105 c-102 -36 -144 -140 -98 -241 44 -96 164 -134 255 -80 63
37 91 86 91 162 0 51 -4 66 -29 98 -51 67 -136 91 -219 61z"/>
<path d="M6227 3103 c-3 -5 -104 -280 -225 -613 -272 -748 -409 -1114 -433
-1162 -27 -53 -53 -66 -146 -76 -90 -11 -105 -16 -96 -37 4 -13 48 -15 283
-15 200 0 281 3 286 12 13 20 -25 35 -107 41 -91 7 -119 23 -119 66 0 28 75
257 129 399 l32 82 72 2 c99 2 431 -4 435 -7 9 -8 146 -455 150 -487 5 -42 5
-42 -141 -53 -43 -3 -84 -8 -92 -12 -19 -7 -19 -29 0 -37 9 -3 217 -6 464 -6
370 0 451 3 460 14 15 18 -14 50 -40 43 -11 -3 -49 -1 -85 3 -78 10 -99 26
-137 108 -29 62 -392 1012 -543 1422 -52 140 -101 270 -109 288 -14 31 -29 40
-38 25z m-97 -719 c54 -144 180 -500 180 -508 0 -3 -101 -6 -225 -6 -124 0
-225 4 -225 8 0 8 186 539 209 596 6 16 14 27 16 24 3 -2 23 -54 45 -114z"/>
<path d="M10669 2389 c-76 -40 -219 -81 -319 -93 l-55 -7 -20 38 c-30 55 -75
77 -160 77 -84 1 -142 -23 -208 -84 l-45 -41 -49 37 c-91 70 -206 104 -353
104 -170 0 -320 -54 -428 -155 -98 -90 -144 -217 -124 -335 20 -114 68 -186
171 -258 l69 -49 -36 -12 c-57 -20 -137 -78 -164 -119 -35 -53 -48 -97 -48
-161 1 -95 43 -160 140 -215 47 -27 47 -27 -34 -46 -103 -24 -194 -88 -224
-160 -21 -50 -18 -148 5 -201 40 -89 145 -160 288 -196 99 -24 349 -24 464 0
274 58 461 219 506 434 31 145 8 281 -60 360 -47 55 -142 101 -234 114 -58 8
-107 6 -253 -11 -109 -13 -221 -20 -279 -18 -87 3 -100 6 -123 27 -20 19 -26
34 -26 67 0 36 5 47 35 73 43 37 70 39 187 11 214 -51 427 0 566 137 34 34 71
83 88 118 26 54 29 70 29 160 0 88 -3 108 -29 165 -44 101 -44 114 -2 156 28
28 40 34 58 29 30 -9 50 -35 42 -55 -14 -33 -16 -101 -4 -129 22 -54 112 -77
185 -47 41 18 62 48 71 104 7 47 22 52 82 31 24 -8 33 -18 37 -42 3 -18 5
-233 3 -479 -2 -329 -6 -450 -15 -459 -6 -6 -44 -15 -82 -18 -72 -7 -108 -24
-83 -40 13 -8 594 -4 650 5 50 8 41 32 -15 39 -85 11 -78 -30 -81 466 -1 244
0 454 3 466 3 12 17 36 32 54 76 89 232 92 269 3 25 -60 35 -251 32 -615 -3
-389 -1 -379 -73 -379 -52 0 -75 -8 -75 -25 0 -22 37 -25 336 -25 315 0 357 3
352 29 -2 12 -20 17 -73 21 -39 3 -76 9 -83 14 -9 5 -12 78 -13 294 0 382 -12
602 -35 670 -25 75 -90 146 -157 170 -162 60 -352 21 -475 -97 l-52 -50 0 75
c0 70 -11 116 -28 113 -4 -1 -41 -19 -83 -40z m-1108 -56 c57 -62 79 -145 86
-323 12 -305 -39 -423 -182 -422 -91 1 -142 40 -177 138 -17 49 -22 88 -26
229 -5 191 9 280 54 348 39 59 78 79 148 74 54 -3 62 -7 97 -44z m251 -1241
c68 -30 92 -71 97 -165 3 -71 0 -84 -28 -142 -35 -70 -98 -133 -171 -170 -207
-105 -509 -74 -599 62 -38 57 -45 91 -39 196 3 67 10 93 34 137 l29 55 55 2
c45 2 214 23 385 47 68 10 192 -2 237 -22z"/>
<path d="M8530 2410 c-50 -29 -241 -63 -422 -76 -76 -5 -88 -8 -88 -24 0 -15
12 -18 85 -22 48 -2 91 -10 98 -17 9 -9 12 -130 12 -512 0 -429 -2 -501 -15
-509 -8 -5 -44 -12 -80 -15 -79 -8 -93 -12 -85 -25 4 -6 139 -10 376 -10 347
0 370 1 367 18 -3 14 -17 18 -81 22 -42 4 -83 12 -89 18 -10 10 -14 147 -19
585 -3 315 -7 573 -8 575 -3 5 -37 1 -51 -8z"/>
<path d="M3830 2366 c0 -19 22 -26 78 -26 26 0 58 -6 72 -13 l25 -13 5 -454
c6 -444 6 -456 28 -512 40 -100 140 -166 272 -182 118 -14 246 30 358 123 l62
52 0 -84 c0 -46 3 -86 6 -90 4 -3 33 8 66 24 80 41 166 58 323 64 174 8 195
12 195 34 0 17 -10 19 -93 23 -60 2 -100 8 -110 17 -15 12 -17 62 -17 532 l0
519 -262 0 c-256 0 -314 -6 -278 -30 8 -5 43 -10 77 -10 99 0 93 29 93 -483 0
-489 4 -464 -73 -534 -106 -98 -225 -70 -258 59 -11 42 -13 151 -11 526 l4
472 -281 0 c-234 0 -281 -2 -281 -14z"/>
</g>
</svg>

